<svg height="512" viewBox="0 0 64 64" width="512" xmlns="http://www.w3.org/2000/svg"><g id="Flood"><path d="m58 35v16.42c-1.48-.83-2.52-2.01-4-2.84a8.653 8.653 0 0 0 -8 0c-2.51 1.4-3.75 3.82-8.01 3.82s-5.49-2.41-7.99-3.82v-13.58l14-12z" fill="#c0ab91"/><path d="m62 52.4v8c-6 0-6-4.8-12-4.8s-6.01 4.8-12.01 4.8-6-4.8-11.99-4.8-6 4.8-12 4.8-6-4.8-12-4.8v-8a7.82 7.82 0 0 1 5 1.63c1.92 1.39 3.34 3.17 7 3.17 4.79 0 5.75-3.05 9-4.29a8.335 8.335 0 0 1 3-.51 7.855 7.855 0 0 1 4 .98c2.5 1.41 3.73 3.82 7.99 3.82s5.5-2.42 8.01-3.82a8.653 8.653 0 0 1 8 0c1.48.83 2.52 2.01 4 2.84a7.755 7.755 0 0 0 4 .98z" fill="#2488ff"/><g fill="#46f8ff"><path d="m54 44v4.58a7.755 7.755 0 0 0 -4-.98v-3.6z"/><path d="m50 38h4v6h-4z"/><path d="m50 44v3.6a7.755 7.755 0 0 0 -4 .98v-4.58z"/><path d="m46 38h4v6h-4z"/><path d="m38 44h4v6h-4z"/><path d="m38 38h4v6h-4z"/><path d="m34 44h4v6h-4z"/><path d="m34 38h4v6h-4z"/></g><path d="m23 13v35.11c-3.25 1.24-4.21 4.29-9 4.29-3.66 0-5.08-1.78-7-3.17v-36.23z" fill="#fee9ab"/><path d="m9 7h12v6h-12z" fill="#ff7956"/><path d="m11 41h8v4h-8z" fill="#46f8ff"/><path d="m11 33h8v4h-8z" fill="#46f8ff"/><path d="m11 25h8v4h-8z" fill="#46f8ff"/><path d="m11 17h8v4h-8z" fill="#46f8ff"/><path d="m19 16h-8a1 1 0 0 0 -1 1v4a1 1 0 0 0 1 1h8a1 1 0 0 0 1-1v-4a1 1 0 0 0 -1-1zm-1 4h-6v-2h6z"/><path d="m19 24h-8a1 1 0 0 0 -1 1v4a1 1 0 0 0 1 1h8a1 1 0 0 0 1-1v-4a1 1 0 0 0 -1-1zm-1 4h-6v-2h6z"/><path d="m19 32h-8a1 1 0 0 0 -1 1v4a1 1 0 0 0 1 1h8a1 1 0 0 0 1-1v-4a1 1 0 0 0 -1-1zm-1 4h-6v-2h6z"/><path d="m19 40h-8a1 1 0 0 0 -1 1v4a1 1 0 0 0 1 1h8a1 1 0 0 0 1-1v-4a1 1 0 0 0 -1-1zm-1 4h-6v-2h6z"/><path d="m59 35a1 1 0 0 0 -.35-.759l-14-12a1 1 0 0 0 -1.3 0l-14 12a1 1 0 0 0 -.35.759v12.06a9.394 9.394 0 0 0 -3-.46 10.038 10.038 0 0 0 -2 .2v-33.8a1 1 0 0 0 -1-1h-1v-5a1 1 0 0 0 -1-1h-5v-4h-2v4h-5a1 1 0 0 0 -1 1v5h-1a1 1 0 0 0 -1 1v34.453a8.979 8.979 0 0 0 -4-.853v2a7.563 7.563 0 0 1 5.373 2.181 9.685 9.685 0 0 0 13.247 0 7.711 7.711 0 0 1 10.748 0 9.688 9.688 0 0 0 13.249 0 7.721 7.721 0 0 1 10.756 0 9.543 9.543 0 0 0 6.627 2.619v-2a7.023 7.023 0 0 1 -3-.6zm-49-27h10v4h-10zm9.37 41.219a7.71 7.71 0 0 1 -10.747 0c-.2-.162-.41-.327-.623-.491v-34.728h14v33.45a13.568 13.568 0 0 0 -2.63 1.769zm15.63-4.219h2v4h-2zm4 0h2v4h-2zm2-2h-2v-4h2zm-4 0h-2v-4h2zm-1.532 8h5.048a8.163 8.163 0 0 1 -5.048 0zm15.532-6h2v2.059a8.859 8.859 0 0 0 -2-.406zm2-2h-2v-4h2zm-4 0h-2v-4h2zm-2 2h2v1.652a8.974 8.974 0 0 0 -2 .4zm8 3.024v-10.024a1 1 0 0 0 -1-1h-8a1 1 0 0 0 -1 1v10.018a19.274 19.274 0 0 0 -1.632 1.2l-.368.293v-11.511a1 1 0 0 0 -1-1h-8a1 1 0 0 0 -1 1v11.522l-.382-.3a19.5 19.5 0 0 0 -1.618-1.196v-12.566l13-11.143 13 11.143v14.058c-.125-.1-.25-.2-.377-.3a19.388 19.388 0 0 0 -1.623-1.194z"/><path d="m44 19.338 17.336 15.41 1.328-1.5-18-16a1 1 0 0 0 -1.328 0l-18 16 1.328 1.5z"/><path d="m50 54.6a9.551 9.551 0 0 0 -6.628 2.619 7.714 7.714 0 0 1 -10.75 0 9.686 9.686 0 0 0 -13.248 0 7.71 7.71 0 0 1 -10.747 0 9.539 9.539 0 0 0 -6.627-2.619v2a7.563 7.563 0 0 1 5.373 2.181 9.685 9.685 0 0 0 13.247 0 7.711 7.711 0 0 1 10.748 0 9.688 9.688 0 0 0 13.249 0 7.721 7.721 0 0 1 10.756 0 9.543 9.543 0 0 0 6.627 2.619v-2a7.571 7.571 0 0 1 -5.377-2.181 9.543 9.543 0 0 0 -6.623-2.619z"/></g></svg>